<svg xmlns="http://www.w3.org/2000/svg" viewBox="0 0 400 400">
  <path d="M 50,0 
           L 100,0 
           A 300,300 0 0,1 400,300 
           L 400,350 
           A 50,50 0 0,1 350,400 
           L 50,400 
           A 50,50 0 0,1 0,350 
           L 0,50 
           A 50,50 0 0,1 50,0 Z" 
        fill="#EFE116" />
  
  <path d="M 50,0 L 100,0 L 100,100 L 0,100 L 0,50 A 50,50 0 0,1 50,0 Z" fill="#E22424" />
  
  <rect x="0" y="100" width="100" height="100" fill="#364FA0" />
  
  <path d="M 300,300 L 400,300 L 400,350 A 50,50 0 0,1 350,400 L 300,400 Z" fill="#E22424" />
</svg>
